<svg xmlns="http://www.w3.org/2000/svg" xmlns:xlink="http://www.w3.org/1999/xlink" width="50" height="50" viewBox="0 0 50 50">
  <defs>
    <clipPath id="clip-path">
      <rect id="Rectangle_912" data-name="Rectangle 912" width="30" height="30" transform="translate(716 3975)" fill="#fff" stroke="#707070" stroke-width="1"/>
    </clipPath>
  </defs>
  <g id="Group_406" data-name="Group 406" transform="translate(-1590 -3719)">
    <circle id="Ellipse_132" data-name="Ellipse 132" cx="25" cy="25" r="25" transform="translate(1590 3719)" fill="rgba(252,211,140,0.37)"/>
    <g id="Mask_Group_63" data-name="Mask Group 63" transform="translate(884 -246)" clip-path="url(#clip-path)">
      <g id="communications" transform="translate(716 3975)">
        <path id="Path_2595" data-name="Path 2595" d="M24.668,9.727a.87.87,0,0,0-.879-.879H9.727a.87.87,0,0,0-.879.879v7.031a.87.87,0,0,0,.879.879h9.545l-.246-1.248a2.584,2.584,0,0,1,.721-2.373l.035-.035a.89.89,0,0,1-.387-.738.879.879,0,0,1,1.758,0v.053a2.034,2.034,0,0,1,.457-.053h.158l.352.053,2.549.51ZM13.242,14.121a.879.879,0,1,1,.879-.879A.87.87,0,0,1,13.242,14.121Zm3.516,0a.879.879,0,1,1,.879-.879A.87.87,0,0,1,16.758,14.121Zm0,0" fill="#faa61a"/>
        <path id="Path_2596" data-name="Path 2596" d="M3.592,14.121a16.945,16.945,0,0,0,1.986,7.84A9.779,9.779,0,0,1,0,14.121Zm0,0" fill="#faa61a"/>
        <path id="Path_2597" data-name="Path 2597" d="M3.592,12.363H0a9.779,9.779,0,0,1,5.578-7.84A16.945,16.945,0,0,0,3.592,12.363Zm0,0" fill="#faa61a"/>
        <path id="Path_2598" data-name="Path 2598" d="M15,19.395h2.144a9.319,9.319,0,0,1-3.269,2.566A11.792,11.792,0,0,0,15,19.395Zm0,0" fill="#faa61a"/>
        <path id="Path_2599" data-name="Path 2599" d="M15,7.09a11.784,11.784,0,0,0-1.125-2.566,9.32,9.32,0,0,1,3.27,2.566Zm0,0" fill="#faa61a"/>
        <path id="Path_2600" data-name="Path 2600" d="M7.09,12.363H5.35c.176-4.412,1.7-8.789,4.377-8.789,1.529,0,2.69,1.441,3.428,3.516H9.727A2.633,2.633,0,0,0,7.09,9.727Zm0,0" fill="#faa61a"/>
        <path id="Path_2601" data-name="Path 2601" d="M9.727,19.395h3.428c-.738,2.074-1.9,3.516-3.428,3.516-2.672,0-4.2-4.377-4.377-8.789H7.09v2.637A2.633,2.633,0,0,0,9.727,19.395Zm0,0" fill="#faa61a"/>
        <path id="Path_2602" data-name="Path 2602" d="M26.635,24.274a.875.875,0,0,1-.621-.258L24.09,22.094l-.621.621a.879.879,0,0,1-1.483-.449l-1.243-6.215a.879.879,0,0,1,1.034-1.034l6.215,1.243a.879.879,0,0,1,.449,1.483l-.621.621,1.923,1.924a.878.878,0,0,1,0,1.243l-2.486,2.486a.875.875,0,0,1-.621.258Zm0,0" fill="#faa61a"/>
        <path id="Path_2603" data-name="Path 2603" d="M.879,5.273A.878.878,0,0,1,0,4.395V.879A.878.878,0,0,1,.879,0H4.395a.879.879,0,0,1,0,1.758H1.758V4.395A.878.878,0,0,1,.879,5.273Zm0,0" fill="#faa61a"/>
        <path id="Path_2604" data-name="Path 2604" d="M29.121,5.273a.878.878,0,0,1-.879-.879V1.758H25.605a.879.879,0,0,1,0-1.758h3.516A.879.879,0,0,1,30,.879V4.395A.878.878,0,0,1,29.121,5.273Zm0,0" fill="#faa61a"/>
        <path id="Path_2605" data-name="Path 2605" d="M4.395,30H.879A.878.878,0,0,1,0,29.121V25.605a.879.879,0,0,1,1.758,0v2.637H4.395a.879.879,0,0,1,0,1.758Zm0,0" fill="#faa61a"/>
        <path id="Path_2606" data-name="Path 2606" d="M29.121,30H25.605a.879.879,0,0,1,0-1.758h2.637V25.605a.879.879,0,0,1,1.758,0v3.516A.879.879,0,0,1,29.121,30Zm0,0" fill="#faa61a"/>
      </g>
    </g>
  </g>
</svg>
