<svg xmlns="http://www.w3.org/2000/svg" width="15.999" height="15.999" viewBox="0 0 15.999 15.999">
  <path id="icon-6" d="M.5,9a.5.5,0,0,0-.5.5v1a.5.5,0,0,0,.5.5H4V9ZM15.78,3.281,12.721.219A.749.749,0,0,0,12.189,0H12V4h4V3.809A.748.748,0,0,0,15.78,3.281ZM11,4.25V0H4.75A.748.748,0,0,0,4,.75V9H8V6.962a.5.5,0,0,1,.856-.353l2.987,3.015a.532.532,0,0,1,0,.75l-2.99,3.012A.5.5,0,0,1,8,13.033V11H4v4.25a.748.748,0,0,0,.75.75h10.5a.748.748,0,0,0,.75-.75V5h-4.25A.752.752,0,0,1,11,4.25Z" fill="#009587"/>
</svg>
