<svg xmlns="http://www.w3.org/2000/svg" width="15.998" height="15.998" viewBox="0 0 15.998 15.998">
  <path id="icon-5" d="M.385,4.618l7.278,3.3a.8.8,0,0,0,.665,0l7.278-3.3a.7.7,0,0,0,0-1.251L8.329.065a.8.8,0,0,0-.665,0L.385,3.367A.7.7,0,0,0,.385,4.618ZM15.608,7.376l-1.815-.823L8.742,8.843a1.8,1.8,0,0,1-1.491,0L2.2,6.553.385,7.376a.7.7,0,0,0,0,1.25l7.278,3.3a.8.8,0,0,0,.665,0l7.279-3.3a.7.7,0,0,0,0-1.25Zm0,3.993L13.8,10.55,8.742,12.842a1.8,1.8,0,0,1-1.491,0L2.194,10.55l-1.809.82a.7.7,0,0,0,0,1.25l7.278,3.3a.8.8,0,0,0,.665,0l7.279-3.3A.7.7,0,0,0,15.608,11.369Z" transform="translate(0.003 0.007)" fill="#02bbd3"/>
</svg>
