<svg xmlns="http://www.w3.org/2000/svg" width="11.999" height="15.999" viewBox="0 0 11.999 15.999">
  <path id="icon-8" d="M7,4.25V0H.75A.748.748,0,0,0,0,.75v14.5A.748.748,0,0,0,.75,16h10.5a.748.748,0,0,0,.75-.75V5H7.749A.752.752,0,0,1,7,4.25Zm-5-2A.25.25,0,0,1,2.25,2h2.5A.25.25,0,0,1,5,2.25v.5A.25.25,0,0,1,4.75,3H2.25A.25.25,0,0,1,2,2.75Zm0,2A.25.25,0,0,1,2.25,4h2.5A.25.25,0,0,1,5,4.25v.5A.25.25,0,0,1,4.75,5H2.25A.25.25,0,0,1,2,4.75ZM8.025,12H9.5a.5.5,0,0,1,0,1H8.025a1.343,1.343,0,0,1-1.207-.746.346.346,0,0,0-.318-.2.341.341,0,0,0-.313.193l-.24.479A.5.5,0,0,1,5.5,13l-.036,0a.5.5,0,0,1-.438-.34L4.5,11.08l-.332,1A1.349,1.349,0,0,1,2.887,13H2.5a.5.5,0,0,1,0-1h.387a.35.35,0,0,0,.332-.239l.568-1.707a.75.75,0,0,1,1.423,0l.434,1.3a1.4,1.4,0,0,1,2.062.442.357.357,0,0,0,.317.2ZM11.78,3.281,8.721.219A.749.749,0,0,0,8.19,0H8V4h4V3.809A.748.748,0,0,0,11.78,3.281Z" fill="#c75600"/>
</svg>
