<svg xmlns="http://www.w3.org/2000/svg" width="17.998" height="15.999" viewBox="0 0 17.998 15.999">
  <path id="icon-7" d="M6.817,13.253a.346.346,0,0,0-.318-.2.341.341,0,0,0-.313.193l-.24.479a.5.5,0,0,1-.921-.065L4.5,12.08l-.332,1A1.349,1.349,0,0,1,2.887,14H2.5a.5.5,0,1,1,0-1h.387a.35.35,0,0,0,.332-.239l.568-1.707a.75.75,0,0,1,1.423,0l.434,1.3a1.4,1.4,0,0,1,2.062.442.355.355,0,0,0,.292.2V10.425l4-3.971V5H7.749A.752.752,0,0,1,7,4.25V0H.75A.748.748,0,0,0,0,.75v14.5A.748.748,0,0,0,.75,16h10.5a.748.748,0,0,0,.75-.75V14L8,14A1.342,1.342,0,0,1,6.817,13.253ZM12,3.809a.748.748,0,0,0-.219-.528L8.721.219A.749.749,0,0,0,8.19,0H8V4h4ZM9,10.841V13h2.156l5.052-5.086L14.086,5.791Zm8.766-5.613-1-1a.8.8,0,0,0-1.125,0l-.851.851,2.121,2.121.851-.851a.8.8,0,0,0,0-1.125Z" fill="#89c24d"/>
</svg>
