<svg xmlns="http://www.w3.org/2000/svg" width="15.998" height="13.5" viewBox="0 0 15.998 13.5">
  <path id="icon-3" d="M4.363,32.081a.375.375,0,0,0-.531,0l-1.99,1.978-.709-.691a.375.375,0,0,0-.531,0l-.491.491a.375.375,0,0,0,0,.531L1.6,35.871a.4.4,0,0,0,.55,0l.487-.488,2.256-2.256a.378.378,0,0,0,0-.531Zm0,4.974a.375.375,0,0,0-.531,0l-1.99,1.991-.709-.691a.375.375,0,0,0-.531,0l-.491.49a.375.375,0,0,0,0,.531l1.483,1.484a.4.4,0,0,0,.55,0l.491-.49,2.256-2.257a.375.375,0,0,0,0-.528ZM2,42.47a1.5,1.5,0,1,0,0,3,1.5,1.5,0,1,0,0-3Zm13.5.5h-9a.5.5,0,0,0-.5.5v1a.5.5,0,0,0,.5.5h9a.5.5,0,0,0,.5-.5v-1A.5.5,0,0,0,15.5,42.97Zm0-10h-9a.5.5,0,0,0-.5.5v1a.5.5,0,0,0,.5.5h9a.5.5,0,0,0,.5-.5v-1A.5.5,0,0,0,15.5,32.971Zm0,5h-9a.5.5,0,0,0-.5.5v1a.5.5,0,0,0,.5.5h9a.5.5,0,0,0,.5-.5v-1A.5.5,0,0,0,15.5,37.971Z" transform="translate(-0.001 -31.971)" fill="#673bb5"/>
</svg>
