<svg xmlns="http://www.w3.org/2000/svg" width="16" height="15.999" viewBox="0 0 16 15.999">
  <path id="icon-9" d="M2.925,9.061a10.22,10.22,0,0,0-2.931,6.1v.007a.75.75,0,0,0,.828.828,10.219,10.219,0,0,0,6.1-2.931L9.282,10.7l-4-4L2.925,9.061ZM15.16.826a2.829,2.829,0,0,0-4,0l-.68.68L9.338.364a1.25,1.25,0,0,0-1.767,0L4.316,3.617a.5.5,0,0,0,0,.707l.707.707a.5.5,0,0,0,.707,0L8.454,2.308l.612.612L5.989,6l4,4L15.16,4.826a2.829,2.829,0,0,0,0-4Z" transform="translate(0.011 0.003)" fill="#fe970f"/>
</svg>
