<svg xmlns="http://www.w3.org/2000/svg" xmlns:xlink="http://www.w3.org/1999/xlink" width="50" height="50" viewBox="0 0 50 50">
  <defs>
    <clipPath id="clip-path">
      <rect id="Rectangle_942" data-name="Rectangle 942" width="30" height="30" transform="translate(735 3761)" fill="#fff" stroke="#707070" stroke-width="1"/>
    </clipPath>
  </defs>
  <g id="Group_354" data-name="Group 354" transform="translate(-1545 -3481)">
    <circle id="Ellipse_132" data-name="Ellipse 132" cx="25" cy="25" r="25" transform="translate(1545 3481)" fill="rgba(252,211,140,0.37)"/>
    <g id="Mask_Group_67" data-name="Mask Group 67" transform="translate(820 -270)" clip-path="url(#clip-path)">
      <g id="Group_296" data-name="Group 296" transform="translate(1746.357 4442.331)">
        <path id="Rectangle_941" data-name="Rectangle 941" d="M1.827,0H28.013A1.827,1.827,0,0,1,29.84,1.827V5.481H0V1.827A1.827,1.827,0,0,1,1.827,0Z" transform="translate(-1011.278 -681.331)" fill="#faa61a"/>
        <path id="Path_2624" data-name="Path 2624" d="M0,0H29.84V17.661a1.827,1.827,0,0,1-1.827,1.827H22.695s-1.466-3.353-3.956-4.437a8.739,8.739,0,0,0-6.112-.464,8.627,8.627,0,0,0-3.509,2.445,7.479,7.479,0,0,0-1.4,2.455H1.827A1.827,1.827,0,0,1,0,17.661Z" transform="translate(-1011.278 -675.119)" fill="#faa61a"/>
        <rect id="Rectangle_936" data-name="Rectangle 936" width="6.699" height="6.699" transform="translate(-1008.355 -673.049)" fill="#fff"/>
        <rect id="Rectangle_938" data-name="Rectangle 938" width="4.872" height="4.872" transform="translate(-1007.442 -672.135)" fill="#faa61a"/>
        <rect id="Rectangle_940" data-name="Rectangle 940" width="14.92" height="0.913" rx="0.457" transform="translate(-999.403 -673.049)" fill="#fff"/>
        <rect id="Rectangle_939" data-name="Rectangle 939" width="14.92" height="0.913" rx="0.457" transform="translate(-999.403 -670.065)" fill="#fff"/>
        <rect id="Rectangle_937" data-name="Rectangle 937" width="14.92" height="0.913" rx="0.457" transform="translate(-999.403 -667.142)" fill="#fff"/>
        <rect id="Rectangle_934" data-name="Rectangle 934" width="5.664" height="0.913" rx="0.457" transform="translate(-990.147 -664.158)" fill="#fff"/>
        <rect id="Rectangle_929" data-name="Rectangle 929" width="5.664" height="0.913" rx="0.457" transform="translate(-990.147 -661.234)" fill="#fff"/>
        <rect id="Rectangle_930" data-name="Rectangle 930" width="5.664" height="0.913" rx="0.457" transform="translate(-1008.355 -661.234)" fill="#fff"/>
        <rect id="Rectangle_935" data-name="Rectangle 935" width="5.664" height="0.913" rx="0.457" transform="translate(-1008.355 -664.158)" fill="#fff"/>
        <rect id="Rectangle_933" data-name="Rectangle 933" width="2.801" height="0.913" rx="0.457" transform="translate(-995.749 -664.279) rotate(90)" fill="#fff"/>
        <rect id="Rectangle_931" data-name="Rectangle 931" width="2.801" height="0.913" rx="0.457" transform="matrix(-0.5, 0.866, -0.866, -0.5, -991.517, -662.889)" fill="#fff"/>
        <rect id="Rectangle_932" data-name="Rectangle 932" width="2.801" height="0.913" rx="0.457" transform="matrix(0.5, 0.866, -0.866, 0.5, -1000.043, -663.346)" fill="#fff"/>
        <path id="Path_2623" data-name="Path 2623" d="M-989.751-707.59a4.891,4.891,0,0,0-1.229-1.948,7.647,7.647,0,0,0-2.548-1.768,4.671,4.671,0,0,0-2.128-.51,6.5,6.5,0,0,0-2.141.139,8.459,8.459,0,0,0-2.12.955,12.968,12.968,0,0,0-1.794,1.687c-.487.659-.959,1.445-.959,1.445a3.54,3.54,0,0,0,.736,1.373,16.372,16.372,0,0,0,1.752,1.745,12.864,12.864,0,0,0,2.084,1.067,3.1,3.1,0,0,0,1.808.3,5.593,5.593,0,0,0,2.27-.438,5.467,5.467,0,0,0,2.126-1.071,4.927,4.927,0,0,0,1.453-1.594A4.392,4.392,0,0,0-989.751-707.59Z" transform="translate(0 51.764)" fill="#faa61a"/>
        <circle id="Ellipse_141" data-name="Ellipse 141" cx="2.588" cy="2.588" r="2.588" transform="translate(-998.794 -658.311)" fill="#fff"/>
      </g>
    </g>
  </g>
</svg>
