<svg xmlns="http://www.w3.org/2000/svg" xmlns:xlink="http://www.w3.org/1999/xlink" width="50" height="50" viewBox="0 0 50 50">
  <defs>
    <clipPath id="clip-path">
      <rect id="Rectangle_911" data-name="Rectangle 911" width="30" height="30" transform="translate(1519 3581)" fill="#fff" stroke="#707070" stroke-width="1"/>
    </clipPath>
  </defs>
  <g id="Group_408" data-name="Group 408" transform="translate(-770 -3239)">
    <circle id="Ellipse_132" data-name="Ellipse 132" cx="25" cy="25" r="25" transform="translate(770 3239)" fill="rgba(252,211,140,0.37)"/>
    <g id="Mask_Group_61" data-name="Mask Group 61" transform="translate(-739 -332)" clip-path="url(#clip-path)">
      <g id="capacity" transform="translate(1517.449 3579.448)">
        <path id="Path_2558" data-name="Path 2558" d="M16.034,23.273V21.2H14.8a3.993,3.993,0,0,1-3.142-1.523,1.036,1.036,0,0,0-.792,1.006v2.586a2.586,2.586,0,1,0,5.172,0Z" fill="#faa61a"/>
        <path id="Path_2559" data-name="Path 2559" d="M9.828,23.273V21.2a1.034,1.034,0,1,0,0,2.069Z" fill="#faa61a"/>
        <path id="Path_2560" data-name="Path 2560" d="M12.182,26.661l-.231.676.322.483a1.406,1.406,0,0,0,2.346-.01l.308-.471-.23-.672a3.556,3.556,0,0,1-2.516-.006Z" fill="#faa61a"/>
        <path id="Path_2561" data-name="Path 2561" d="M17.069,21.2v2.069a1.034,1.034,0,1,0,0-2.069Z" fill="#faa61a"/>
        <path id="Path_2562" data-name="Path 2562" d="M29.483,8.276a3.634,3.634,0,0,1-.041.517h.041a1.034,1.034,0,1,0,0-2.069Z" fill="#faa61a"/>
        <path id="Path_2563" data-name="Path 2563" d="M21.459,5.845a2.062,2.062,0,0,1,.782-.156h.074A2.576,2.576,0,0,1,24.2,3.761l.175-.044a1.549,1.549,0,0,1,1.487-1.131h.517V3.621h-.517a.517.517,0,1,0,0,1.034h2.586a2.071,2.071,0,0,0,2.069-2.069V2.069A.518.518,0,0,0,30,1.552H24.25a3.043,3.043,0,0,0-2.887,4Z" fill="#faa61a"/>
        <path id="Path_2564" data-name="Path 2564" d="M28.448,8.276V5.69H25.862a1.552,1.552,0,0,1-1.416-.923,1.549,1.549,0,0,0-1.171,1.5V8.276a2.586,2.586,0,1,0,5.172,0Z" fill="#faa61a"/>
        <path id="Path_2565" data-name="Path 2565" d="M22.241,8.793h.041a3.634,3.634,0,0,1-.041-.517V6.724a1.034,1.034,0,1,0,0,2.069Z" fill="#faa61a"/>
        <path id="Path_2566" data-name="Path 2566" d="M17.177,28.362,15.731,28l-.246.375a2.441,2.441,0,0,1-4.072.017L11.152,28l-1.433.358a2.583,2.583,0,0,0-1.96,2.509v.68H19.138v-.678a2.582,2.582,0,0,0-1.961-2.51Z" fill="#faa61a"/>
        <path id="Path_2567" data-name="Path 2567" d="M24.6,11.664l-.254.743a1.617,1.617,0,0,0,3.022,0l-.252-.737a3.556,3.556,0,0,1-2.516-.006Z" fill="#faa61a"/>
        <path id="Path_2568" data-name="Path 2568" d="M8.793,19.485a3.455,3.455,0,0,0,.126.9,2.041,2.041,0,0,1,.908-.219H9.9a2.067,2.067,0,0,1,2-1.552h.277l.154.23A2.961,2.961,0,0,0,14.8,20.17h2.273a2.041,2.041,0,0,1,.908.219,3.435,3.435,0,0,0-3.327-4.357h-2.4a3.457,3.457,0,0,0-3.453,3.453Z" fill="#faa61a"/>
        <path id="Path_2569" data-name="Path 2569" d="M24.171,28.343l.378,1.511.59-.786Z" fill="#faa61a"/>
        <path id="Path_2570" data-name="Path 2570" d="M27.306,27.236l-.194-.567a3.556,3.556,0,0,1-2.516-.006l-.192.562,1.458,1.093Z" fill="#faa61a"/>
        <path id="Path_2571" data-name="Path 2571" d="M27.176,29.855l.378-1.511-.967.726Z" fill="#faa61a"/>
        <path id="Path_2572" data-name="Path 2572" d="M24.569,31.552h2.586l-1.293-1.724Z" fill="#faa61a"/>
        <path id="Path_2573" data-name="Path 2573" d="M29.59,13.364l-1.365-.34a2.656,2.656,0,0,1-4.742,0l-1.353.338a2.583,2.583,0,0,0-1.959,2.509v1.715H20.6A4.489,4.489,0,0,1,24.66,15h2.4a4.489,4.489,0,0,1,4.059,2.586h.429V15.874a2.583,2.583,0,0,0-1.961-2.51Z" fill="#faa61a"/>
        <path id="Path_2574" data-name="Path 2574" d="M29.59,28.364l-.918-.229-.854,3.416h3.734v-.678a2.583,2.583,0,0,0-1.961-2.51Z" fill="#faa61a"/>
        <path id="Path_2575" data-name="Path 2575" d="M28.448,21.437a2.035,2.035,0,0,1-2.826-.767,3.071,3.071,0,0,1-1.537-.578,1.539,1.539,0,0,0-.809,1.359v1.825a2.586,2.586,0,1,0,5.172,0Z" fill="#faa61a"/>
        <path id="Path_2576" data-name="Path 2576" d="M29.483,21.207v2.069a1.034,1.034,0,0,0,0-2.069Z" fill="#faa61a"/>
        <path id="Path_2577" data-name="Path 2577" d="M22.132,28.362a2.583,2.583,0,0,0-1.959,2.509v.68h3.734l-.855-3.419Z" fill="#faa61a"/>
        <path id="Path_2578" data-name="Path 2578" d="M27.064,16.034h-2.4a3.435,3.435,0,0,0-3.327,4.357,2.041,2.041,0,0,1,.908-.219h.341a2.559,2.559,0,0,1,.762-.839,3.129,3.129,0,0,1-.212-.359l-.32-.639.925-.463.32.639a2.055,2.055,0,0,0,1.286,1.066v-.957h1.034v1.034a1.034,1.034,0,1,0,1.034-1.034V17.586a2.071,2.071,0,0,1,2.069,2.069v.517a2.041,2.041,0,0,1,.908.219,3.435,3.435,0,0,0-3.327-4.357Z" fill="#faa61a"/>
        <path id="Path_2579" data-name="Path 2579" d="M22.241,23.276V21.451c0-.083.009-.163.017-.244h-.017a1.034,1.034,0,0,0,0,2.069Z" fill="#faa61a"/>
        <path id="Path_2580" data-name="Path 2580" d="M20.172,7.759a2.046,2.046,0,0,1,.422-1.238l-.213-.637a4.075,4.075,0,0,1-.209-1.289,4.032,4.032,0,0,1,.032-.484l-.061-.061-1.091.541-.25-.173a10.227,10.227,0,0,0-4-1.654l-.3-.055-.391-1.157h-2.36l-.391,1.157-.3.055a10.227,10.227,0,0,0-4,1.654l-.25.173L5.72,4.05,4.05,5.719l.541,1.091-.173.25a10.232,10.232,0,0,0-1.654,4l-.055.3-1.157.391v2.36l1.157.391.055.3a10.227,10.227,0,0,0,1.654,4l.173.25L4.05,20.142l1.669,1.669,1.091-.541.251.173c.237.163.482.317.731.46a2.043,2.043,0,0,1,.29-.765A4.649,4.649,0,0,1,7.8,20.072,8.791,8.791,0,1,1,20.195,7.977a2.035,2.035,0,0,1-.022-.219Z" fill="#faa61a"/>
        <path id="Path_2581" data-name="Path 2581" d="M12.931,5.69a7.263,7.263,0,0,0-1.113.085L11.976,6.8a6.19,6.19,0,0,1,.955-.073Z" fill="#faa61a"/>
        <path id="Path_2582" data-name="Path 2582" d="M5.69,12.931H6.724a6.188,6.188,0,0,1,4.3-5.907L10.7,6.039A7.22,7.22,0,0,0,5.69,12.931Z" fill="#faa61a"/>
      </g>
    </g>
  </g>
</svg>
