<svg xmlns="http://www.w3.org/2000/svg" width="15.998" height="15.997" viewBox="0 0 15.998 15.997">
  <path id="icon-13" d="M6.749,0h2.5A.748.748,0,0,1,10,.75V6h2.74a.624.624,0,0,1,.441,1.065L8.427,11.82a.605.605,0,0,1-.853,0L2.815,7.065A.624.624,0,0,1,3.256,6H6V.75A.748.748,0,0,1,6.749,0ZM16,11.748v3.5a.748.748,0,0,1-.75.75H.75a.748.748,0,0,1-.75-.75v-3.5A.748.748,0,0,1,.75,11H5.334l1.531,1.531a1.6,1.6,0,0,0,2.268,0L10.664,11h4.584A.748.748,0,0,1,16,11.748ZM12.123,14.5a.625.625,0,1,0-.625.625A.627.627,0,0,0,12.123,14.5Zm2,0a.625.625,0,1,0-.625.625A.627.627,0,0,0,14.123,14.5Z" fill="#1b66a6"/>
</svg>
