<svg xmlns="http://www.w3.org/2000/svg" viewBox="0 0 1369.93 239.28"><defs><style>.a{fill:#487faa;}.b{fill:#21325f;}</style></defs><path class="a" d="M-.41,51.53V-110.13c28.06-9.1,65.2-17.41,109.84-22.06C160-137.45,195-143,251.13-143c95.29,0,162.3,8.29,260.68,33.7,54.48,14.07,50.71,168.2-1,168.2-191.49,0-227.91,1.09-260.8,0-31.63-1.05-126.77,0-248.93,0-.5,0-1,0-1.47-.06l-.26-1.6C-.51,55.32-.41,53.42-.41,51.53Z" transform="translate(0.67 179.92)"/><path class="b" d="M-.41-104c.48-.06,1-.11,1.47-.14,74.67-4.6,151.37,15,293.73,10.72,153.19-4.59,219.12-35.89,419.75-67.4C936-195.66,1203.22-196.1,1368.58-46c.23.21.45.44.67.66,0,.29,0,.59,0,.87V57.18c-.22.71-.43,1.41-.65,2.13H1.06L-.41,55Z" transform="translate(0.67 179.92)"/></svg>