<svg xmlns="http://www.w3.org/2000/svg" viewBox="0 0 1369.93 239.28"><defs><style>.a{fill:#487faa;}.b{fill:#21325f;}</style></defs><path class="a" d="M1369,51.53V-110.13a503.55,503.55,0,0,0-109.84-22.06c-48.6-4.38-127.92-11-141.7-10.83-95.29,1-162.3,8.29-260.68,33.7-54.48,14.07-50.71,168.2,1,168.2,191.49,0,227.91,1.09,260.8,0,31.63-1.05,126.77,0,248.93,0,.5,0,1,0,1.47-.06l.26-1.6C1369.09,55.32,1369,53.42,1369,51.53Z" transform="translate(0.67 179.92)"/><path class="b" d="M1369-104c-.48-.06-1-.11-1.47-.14-74.67-4.6-151.37,15-293.73,10.72C920.6-98.06,854.67-129.36,654-160.87,432.58-195.66,165.36-196.1,0-46c-.23.21-.45.44-.67.66,0,.29,0,.59,0,.87V57.18c.22.71.43,1.41.65,2.13H1367.52L1369,55Z" transform="translate(0.67 179.92)"/></svg>